HIERARCHY
ROOT Hips
{
	OFFSET 0.000000 0.000000 0.000000
	CHANNELS 6 Xposition Yposition Zposition Xrotation Yrotation Zrotation
	JOINT LeftUpLeg_virtual
	{
		OFFSET 0.000000 0.000000 0.000000
		CHANNELS 3 Xrotation Yrotation Zrotation
		JOINT LeftUpLeg
		{
			OFFSET 11.394100 -6.187798 -0.413800
			CHANNELS 3 Xrotation Yrotation Zrotation
			JOINT LeftLeg
			{
				OFFSET 0.430247 -32.302673 3.732800
				CHANNELS 3 Xrotation Yrotation Zrotation
				JOINT LeftFoot
				{
					OFFSET -0.430247 -48.264931 -6.423300
					CHANNELS 3 Xrotation Yrotation Zrotation
					JOINT LeftToeBase
					{
						OFFSET 4.230900 -16.068199 23.438400
						CHANNELS 3 Xrotation Yrotation Zrotation
						JOINT LeftToe_End
						{
							OFFSET 4.510700 0.695400 19.974600
							CHANNELS 3 Xrotation Yrotation Zrotation
							End Site
							{
								OFFSET 0 0 0
							}
						}
					}
				}
			}
		}
	}
	JOINT RightUpLeg_virtual
	{
		OFFSET 0.000000 0.000000 0.000000
		CHANNELS 3 Xrotation Yrotation Zrotation
		JOINT RightUpLeg
		{
			OFFSET -11.333700 -6.187798 -0.413800
			CHANNELS 3 Xrotation Yrotation Zrotation
			JOINT RightLeg
			{
				OFFSET -0.430392 -32.302628 3.733000
				CHANNELS 3 Xrotation Yrotation Zrotation
				JOINT RightFoot
				{
					OFFSET 0.430392 -48.264973 -6.423500
					CHANNELS 3 Xrotation Yrotation Zrotation
					JOINT RightToeBase
					{
						OFFSET -4.230900 -16.068199 23.438400
						CHANNELS 3 Xrotation Yrotation Zrotation
						JOINT RightToe_End
						{
							OFFSET -4.510700 0.695400 19.974600
							CHANNELS 3 Xrotation Yrotation Zrotation
							End Site
							{
								OFFSET 0 0 0
							}
						}
					}
				}
			}
		}
	}
	JOINT Spine_virtual
	{
		OFFSET 0.000000 0.000000 0.000000
		CHANNELS 3 Xrotation Yrotation Zrotation
		JOINT Spine
		{
			OFFSET -0.002400 12.777504 0.315300
			CHANNELS 3 Xrotation Yrotation Zrotation
			JOINT Spine1
			{
				OFFSET -0.002067 5.816869 0.032633
				CHANNELS 3 Xrotation Yrotation Zrotation
				JOINT Spine1_split
				{
					OFFSET -0.002067 5.816869 0.032633
					CHANNELS 3 Xrotation Yrotation Zrotation
					JOINT Spine2
					{
						OFFSET -0.002067 5.816869 0.032633
						CHANNELS 3 Xrotation Yrotation Zrotation
						JOINT Neck_virtual
						{
							OFFSET 0.000000 0.000000 0.000000
							CHANNELS 3 Xrotation Yrotation Zrotation
							JOINT Neck
							{
								OFFSET -0.003700 21.199493 -0.826900
								CHANNELS 3 Xrotation Yrotation Zrotation
								JOINT Head
								{
									OFFSET 0.000000 20.442200 4.834800
									CHANNELS 3 Xrotation Yrotation Zrotation
									JOINT HeadTop_End
									{
										OFFSET 0.000000 34.668396 4.968400
										CHANNELS 3 Xrotation Yrotation Zrotation
										End Site
										{
											OFFSET 0 0 0
										}
									}
								}
							}
						}
						JOINT LeftShoulder_virtual
						{
							OFFSET 0.000000 0.000000 0.000000
							CHANNELS 3 Xrotation Yrotation Zrotation
							JOINT LeftShoulder
							{
								OFFSET 3.288150 8.794197 -1.372250
								CHANNELS 3 Xrotation Yrotation Zrotation
								JOINT LeftShoulder_split
								{
									OFFSET 3.288150 8.794197 -1.372250
									CHANNELS 3 Xrotation Yrotation Zrotation
									JOINT LeftArm
									{
										OFFSET 11.953299 -2.279007 -0.146200
										CHANNELS 3 Xrotation Yrotation Zrotation
										JOINT LeftForeArm
										{
											OFFSET 18.448900 0.000000 0.000000
											CHANNELS 3 Xrotation Yrotation Zrotation
											JOINT LeftHand
											{
												OFFSET 29.527798 0.000000 0.000000
												CHANNELS 3 Xrotation Yrotation Zrotation
												End Site
												{
													OFFSET 0 0 0
												}
											}
										}
									}
								}
							}
						}
						JOINT RightShoulder_virtual
						{
							OFFSET 0.000000 0.000000 0.000000
							CHANNELS 3 Xrotation Yrotation Zrotation
							JOINT RightShoulder
							{
								OFFSET -3.249400 8.794197 -1.372250
								CHANNELS 3 Xrotation Yrotation Zrotation
								JOINT RightShoulder_split
								{
									OFFSET -3.249400 8.794197 -1.372250
									CHANNELS 3 Xrotation Yrotation Zrotation
									JOINT RightArm
									{
										OFFSET -11.953299 -2.279007 -0.146200
										CHANNELS 3 Xrotation Yrotation Zrotation
										JOINT RightForeArm
										{
											OFFSET -18.448900 0.000000 0.000000
											CHANNELS 3 Xrotation Yrotation Zrotation
											JOINT RightHand
											{
												OFFSET -29.527802 0.000000 0.000000
												CHANNELS 3 Xrotation Yrotation Zrotation
												End Site
												{
													OFFSET 0 0 0
												}
											}
										}
									}
								}
							}
						}
					}
				}
			}
		}
	}
}
MOTION
Frames: 11
Frame Time: 0.03333333
-0.417850 85.632599 0.299603 0.000000 0.000000 0.000000 11.705717 -49.521699 11.404201 -68.323427 24.998953 43.261773 44.537949 -19.585091 3.202460 7.537671 0.565775 -11.518728 -0.806751 -6.108570 0.921361 0.000000 0.000000 0.000000 11.705717 -49.521699 11.404201 -38.056509 1.958672 -24.202557 52.398630 1.036654 -6.829698 -21.042174 -1.757734 25.309493 0.528340 2.970084 1.471353 0.000000 0.000000 0.000000 11.705717 -49.521699 11.404201 10.978869 2.848631 -2.161160 6.100703 5.566527 -4.284681 0.000000 0.000000 0.000000 0.000000 0.000000 0.000000 -5.786908 6.328135 -3.046183 2.318313 9.363379 -0.265394 -4.146502 23.161925 -3.523235 0.000000 0.000000 0.000000 -5.786908 6.328135 -3.046183 -1.875349 -16.181760 -2.870483 0.000000 0.000000 0.000000 -10.644671 2.164759 -45.510599 -22.862400 -25.786278 -15.871773 0.000000 0.000000 0.000000 -5.786908 6.328135 -3.046183 -5.074618 24.343750 1.482672 0.000000 0.000000 0.000000 6.642365 -34.733742 57.610433 -21.032007 44.833809 19.961687 0.000000 0.000000 0.000000 
-0.386219 85.578056 0.620808 0.000000 0.000000 0.000000 10.679172 -52.661967 10.635897 -66.089593 23.508673 43.901611 46.978581 -18.812199 3.544107 5.040192 1.913337 -11.701812 -0.637866 -5.189294 -0.062677 0.000000 0.000000 0.000000 10.679172 -52.661967 10.635897 -37.900696 2.795467 -23.588755 52.353625 2.453966 -6.866188 -20.822042 -0.754754 24.973518 0.378337 2.978185 1.420359 0.000000 0.000000 0.000000 10.679172 -52.661967 10.635897 11.047068 2.849681 -2.098353 6.244018 5.671757 -4.285776 0.000000 0.000000 0.000000 0.000000 0.000000 0.000000 -5.640080 6.608171 -2.917742 2.645278 9.260210 -0.213890 -3.676947 23.009493 -3.772379 0.000000 0.000000 0.000000 -5.640080 6.608171 -2.917742 -1.772849 -15.071251 -2.573299 0.000000 0.000000 0.000000 -9.648135 1.877998 -45.209275 -22.751854 -26.556766 -16.251537 0.000000 0.000000 0.000000 -5.640080 6.608171 -2.917742 -5.414778 24.900588 2.343740 0.000000 0.000000 0.000000 4.830017 -31.450450 55.681642 -21.606719 44.967404 21.111015 0.000000 0.000000 0.000000 
-0.435357 85.371346 1.090691 0.000000 0.000000 0.000000 9.427541 -55.609221 9.692791 -64.421572 20.036223 42.884610 52.592173 -15.754796 4.364595 2.125372 4.465477 -11.741107 1.410667 -3.434466 0.222843 0.000000 0.000000 0.000000 9.427541 -55.609221 9.692791 -37.035652 4.850107 -22.205316 52.472034 2.742340 -7.231447 -20.894908 -0.721626 25.298573 -0.030956 3.000266 1.281109 0.000000 0.000000 0.000000 9.427541 -55.609221 9.692791 11.226654 2.877477 -1.913317 6.622071 5.935549 -4.283186 0.000000 0.000000 0.000000 0.000000 0.000000 0.000000 -5.249794 6.884303 -2.789885 2.921512 8.983521 -0.077021 -3.073441 22.597536 -4.427862 0.000000 0.000000 0.000000 -5.249794 6.884303 -2.789885 -1.627998 -13.599102 -2.198491 0.000000 0.000000 0.000000 -7.656108 1.924359 -44.436214 -22.218809 -27.483372 -16.689639 0.000000 0.000000 0.000000 -5.249794 6.884303 -2.789885 -5.521599 25.685608 2.682261 0.000000 0.000000 0.000000 3.144985 -28.050416 54.521200 -22.183252 44.067913 21.624420 0.000000 0.000000 0.000000 
-0.516713 85.067078 1.659935 0.000000 0.000000 0.000000 7.981022 -58.546257 8.541338 -63.939764 16.695670 42.960828 59.115677 -10.500241 5.280643 -2.424196 3.809130 -15.508131 6.060292 -2.777697 5.050300 0.000000 0.000000 0.000000 7.981022 -58.546257 8.541338 -35.847548 7.707169 -20.368625 52.654205 2.355564 -7.775747 -21.121730 -1.213374 26.037998 -0.638558 3.032797 1.074516 0.000000 0.000000 0.000000 7.981022 -58.546257 8.541338 11.482333 2.913951 -1.655643 7.156886 6.280144 -4.268098 0.000000 0.000000 0.000000 0.000000 0.000000 0.000000 -4.692710 7.151616 -2.654779 3.168456 8.581848 0.118291 -2.394688 21.993557 -5.350263 0.000000 0.000000 0.000000 -4.692710 7.151616 -2.654779 -1.392032 -11.113806 -1.624910 0.000000 0.000000 0.000000 -4.936920 1.500544 -43.686713 -21.387727 -28.576905 -17.114733 0.000000 0.000000 0.000000 -4.692710 7.151616 -2.654779 -5.651480 26.970783 3.125273 0.000000 0.000000 0.000000 2.522991 -24.162616 53.170902 -22.720240 43.276130 21.877653 0.000000 0.000000 0.000000 
-0.609777 84.717941 2.271622 0.000000 0.000000 0.000000 6.333565 -61.662258 7.118773 -63.890129 14.002076 42.860151 65.774530 -7.389431 5.882056 -7.294753 3.892595 -18.081637 8.057560 -2.839119 8.570350 0.000000 0.000000 0.000000 6.333565 -61.662258 7.118773 -34.727974 11.025518 -18.464692 52.761063 2.049753 -8.319477 -20.806834 -1.846988 27.617966 -1.383470 3.072847 0.821435 0.000000 0.000000 0.000000 6.333565 -61.662258 7.118773 11.778985 2.945930 -1.381908 7.770476 6.627628 -4.231603 0.000000 0.000000 0.000000 0.000000 0.000000 0.000000 -4.045644 7.405337 -2.504581 3.407267 8.104570 0.345600 -1.695272 21.266460 -6.402583 0.000000 0.000000 0.000000 -4.045644 7.405337 -2.504581 -1.198228 -8.823973 -1.070340 0.000000 0.000000 0.000000 -1.690131 1.580941 -42.916534 -20.383656 -29.841431 -17.458747 0.000000 0.000000 0.000000 -4.045644 7.405337 -2.504581 -5.857955 28.647203 3.741297 0.000000 0.000000 0.000000 2.569308 -20.280109 52.636713 -22.744209 43.682212 19.772701 0.000000 0.000000 0.000000 
-0.674500 84.366478 2.912231 0.000000 0.000000 0.000000 4.401900 -65.151856 5.249023 -63.844401 11.198468 41.251450 72.533453 -5.825610 5.856814 -8.726720 3.299967 -15.603683 4.710673 -2.038702 3.284842 0.000000 0.000000 0.000000 4.401900 -65.151856 5.249023 -33.974665 14.251349 -16.610340 52.774522 2.045960 -8.722129 -20.411416 -2.161942 29.133824 -2.204720 3.116583 0.542600 0.000000 0.000000 0.000000 4.401900 -65.151856 5.249023 12.079733 2.973467 -1.110129 8.385007 6.900259 -4.164793 0.000000 0.000000 0.000000 0.000000 0.000000 0.000000 -3.385451 7.640521 -2.331396 3.657435 7.600640 0.577906 -1.021639 20.487530 -7.450493 0.000000 0.000000 0.000000 -3.385451 7.640521 -2.331396 -1.029298 -6.525264 -0.488143 0.000000 0.000000 0.000000 1.766637 1.705280 -42.439753 -19.332830 -31.269600 -17.659189 0.000000 0.000000 0.000000 -3.385451 7.640521 -2.331396 -6.241814 30.304156 4.683762 0.000000 0.000000 0.000000 1.555785 -15.867687 52.371053 -21.618992 42.736654 14.954317 0.000000 0.000000 0.000000 
-0.656469 83.930672 3.633038 0.000000 0.000000 0.000000 1.916837 -69.205362 2.482933 -63.638293 5.113904 34.533740 81.448360 -8.947998 3.644032 -0.902763 -1.382987 -6.275343 -8.688127 1.810583 -6.417983 0.000000 0.000000 0.000000 1.916837 -69.205362 2.482933 -34.004455 16.948134 -14.901506 52.788534 2.825251 -8.837928 -19.870757 -1.790444 30.436016 -3.041171 3.161288 0.258741 0.000000 0.000000 0.000000 1.916837 -69.205362 2.482933 12.343216 3.016069 -0.772947 8.923188 7.020074 -4.058724 0.000000 0.000000 0.000000 0.000000 0.000000 0.000000 -2.789079 7.852358 -2.127375 3.937832 7.119377 0.789870 -0.407141 19.730666 -8.365666 0.000000 0.000000 0.000000 -2.789079 7.852358 -2.127375 -0.898858 -4.398108 0.098712 0.000000 0.000000 0.000000 5.097164 1.734649 -42.368425 -18.363826 -32.842907 -17.662336 0.000000 0.000000 0.000000 -2.789079 7.852358 -2.127375 -6.749432 32.134524 6.058196 0.000000 0.000000 0.000000 -0.229562 -10.916189 51.071537 -19.511057 40.149870 9.854810 0.000000 0.000000 0.000000 
0.083243 83.427956 4.456585 0.000000 0.000000 0.000000 -0.591794 -75.397092 -1.396963 -65.539319 -1.640345 25.445207 90.274699 -11.486025 1.273013 10.510919 -5.631754 -1.833359 -32.474722 6.400733 -3.010234 0.000000 0.000000 0.000000 -0.591794 -75.397092 -1.396963 -36.728622 18.055359 -12.717003 52.154239 5.951033 -8.614931 -18.155483 0.361866 31.025226 -3.831954 3.203221 -0.009367 0.000000 0.000000 0.000000 -0.591794 -75.397092 -1.396963 12.622873 2.719199 0.447475 9.445720 7.103449 -3.161260 0.000000 0.000000 0.000000 0.000000 0.000000 0.000000 -2.325258 7.847061 -0.992086 4.144026 5.424368 1.314845 0.194479 17.013434 -9.161286 0.000000 0.000000 0.000000 -2.325258 7.847061 -0.992086 -0.917689 -1.878583 0.761576 0.000000 0.000000 0.000000 13.733855 -0.847935 -45.771837 -14.868605 -35.110178 -16.295137 0.000000 0.000000 0.000000 -2.325258 7.847061 -0.992086 -7.599283 34.810933 8.621274 0.000000 0.000000 0.000000 -2.613192 -2.476479 44.662580 -16.342594 34.189905 6.278633 0.000000 0.000000 0.000000 
0.718764 83.116058 5.444084 0.000000 0.000000 0.000000 5.624569 -83.333881 2.511937 -66.008540 -2.015646 13.284557 95.418521 -15.122134 0.503158 7.437684 -9.651218 5.706191 -35.361484 6.526073 3.851192 0.000000 0.000000 0.000000 5.624569 -83.333881 2.511937 -41.321388 19.392058 -8.612156 50.097791 9.594292 -8.273451 -15.709795 2.075216 31.190124 -4.515896 3.239439 -0.241160 0.000000 0.000000 0.000000 5.624569 -83.333881 2.511937 12.756411 2.351991 1.751579 9.612509 7.116598 -2.000854 0.000000 0.000000 0.000000 0.000000 0.000000 0.000000 -1.823872 7.731719 0.397906 4.059447 2.938202 1.980113 0.006709 13.615784 -9.299925 0.000000 0.000000 0.000000 -1.823872 7.731719 0.397906 -0.640643 -0.399388 2.381977 0.000000 0.000000 0.000000 22.973507 -5.373173 -50.656122 -11.510146 -41.102999 -13.944940 0.000000 0.000000 0.000000 -1.823872 7.731719 0.397906 -8.592161 38.140210 11.277429 0.000000 0.000000 0.000000 -2.820049 7.128379 36.956784 -12.047492 27.952966 5.067181 0.000000 0.000000 0.000000 
1.374916 83.328453 6.549763 0.000000 0.000000 0.000000 146.579411 -86.803344 140.649045 -63.161082 -1.931021 2.855422 93.361494 -17.896834 1.866090 -5.649905 -12.743800 3.255641 -18.061774 5.600808 12.590702 0.000000 0.000000 0.000000 146.579411 -86.803344 140.649045 -46.034625 18.707282 -5.170907 45.237593 13.811871 -5.848061 -11.759661 5.928094 29.866218 -3.600922 1.670999 0.134566 0.000000 0.000000 0.000000 146.579411 -86.803344 140.649045 13.040356 1.737790 3.003981 10.010048 6.753864 -0.526108 0.000000 0.000000 0.000000 0.000000 0.000000 0.000000 -1.318047 7.188077 2.008278 4.736003 -1.397303 3.588806 -1.828498 8.662895 -7.252679 0.000000 0.000000 0.000000 -1.318047 7.188077 2.008278 -0.815767 -0.067440 3.752765 0.000000 0.000000 0.000000 31.090324 -11.895253 -56.143602 -7.826960 -46.792403 -10.309394 0.000000 0.000000 0.000000 -1.318047 7.188077 2.008278 -10.003435 41.720855 14.085349 0.000000 0.000000 0.000000 -0.736519 15.381991 29.904477 -10.793766 27.642406 5.074559 0.000000 0.000000 0.000000 
2.009708 84.327400 7.867146 0.000000 0.000000 0.000000 166.567386 -76.001072 158.803087 -58.512393 -6.560532 -4.499187 83.128375 -16.844601 4.385571 -17.434691 -11.033576 -4.085710 -7.563379 6.359129 3.931169 0.000000 0.000000 0.000000 166.567386 -76.001072 158.803087 -49.264816 15.587139 -4.677200 35.838020 21.958759 1.196302 -4.920314 8.593455 23.170940 0.605057 -5.682715 0.952828 0.000000 0.000000 0.000000 166.567386 -76.001072 158.803087 13.398957 1.179626 3.875361 10.563869 6.546847 0.586082 0.000000 0.000000 0.000000 0.000000 0.000000 0.000000 -0.651093 6.858166 3.257363 6.717869 -6.983524 5.078014 -4.173207 1.892680 -2.316547 0.000000 0.000000 0.000000 -0.651093 6.858166 3.257363 -0.668038 -2.584742 3.955995 0.000000 0.000000 0.000000 36.731538 -17.381795 -61.402123 -4.202828 -52.231051 -5.062321 0.000000 0.000000 0.000000 -0.651093 6.858166 3.257363 -10.229006 44.874544 14.539002 0.000000 0.000000 0.000000 1.252273 25.923664 23.117183 -9.046291 26.266285 5.527670 0.000000 0.000000 0.000000 
